<?xml version="1.0" encoding="UTF-8" standalone="no"?>
<!DOCTYPE svg PUBLIC "-//W3C//DTD SVG 1.1//EN"
 "http://www.w3.org/Graphics/SVG/1.1/DTD/svg11.dtd">
<!-- Generated by graphviz version 2.43.0 (0)
 -->
<!-- Title: research_tree Pages: 1 -->
<svg width="421pt" height="327pt"
 viewBox="0.00 0.00 421.00 326.59" xmlns="http://www.w3.org/2000/svg" xmlns:xlink="http://www.w3.org/1999/xlink">
<g id="graph0" class="graph" transform="scale(0.64 0.64) rotate(0) translate(4 508)">
<title>research_tree</title>
<!-- Root -->
<g id="node1" class="node">
<title>Root</title>
<ellipse fill="#1a237e" stroke="black" cx="318" cy="-240" rx="65" ry="65"/>
<text text-anchor="start" x="254" y="-245" font-family="Montserrat Bold" font-size="15.00" fill="white">Open Research</text>
<text text-anchor="start" x="271" y="-228" font-family="Montserrat Bold" font-size="15.00" fill="white">Challenges</text>
</g>
<!-- ID -->
<g id="node2" class="node">
<title>ID</title>
<path fill="#e8f5e9" stroke="#2e7d32" stroke-width="2" d="M264,-188C264,-188 152,-188 152,-188 146,-188 140,-182 140,-176 140,-176 140,-164 140,-164 140,-158 146,-152 152,-152 152,-152 264,-152 264,-152 270,-152 276,-158 276,-164 276,-164 276,-176 276,-176 276,-182 270,-188 264,-188"/>
<text text-anchor="start" x="171.5" y="-173.6" font-family="Montserrat Bold" font-size="13.00" fill="#1b5e20">Identity &amp;</text>
<text text-anchor="start" x="146" y="-159.6" font-family="Montserrat Bold" font-size="13.00" fill="#1b5e20">Trust Boundaries</text>
</g>
<!-- Root&#45;&#45;ID -->
<g id="edge1" class="edge">
<title>Root&#45;&#45;ID</title>
<path fill="none" stroke="#999999" stroke-width="1.5" d="M263,-205C253.76,-199.12 244.52,-193.24 236.33,-188.03"/>
</g>
<!-- CS -->
<g id="node3" class="node">
<title>CS</title>
<path fill="#e3f2fd" stroke="#1565c0" stroke-width="2" d="M489,-184C489,-184 367,-184 367,-184 361,-184 355,-178 355,-172 355,-172 355,-160 355,-160 355,-154 361,-148 367,-148 367,-148 489,-148 489,-148 495,-148 501,-154 501,-160 501,-160 501,-172 501,-172 501,-178 495,-184 489,-184"/>
<text text-anchor="start" x="361" y="-169.6" font-family="Montserrat Bold" font-size="13.00" fill="#0d47a1">Cognitive Security</text>
<text text-anchor="start" x="402.5" y="-155.6" font-family="Montserrat Bold" font-size="13.00" fill="#0d47a1">&amp; Data</text>
</g>
<!-- Root&#45;&#45;CS -->
<g id="edge2" class="edge">
<title>Root&#45;&#45;CS</title>
<path fill="none" stroke="#999999" stroke-width="1.5" d="M372.03,-203.65C382.14,-196.85 392.29,-190.02 401.12,-184.09"/>
</g>
<!-- OB -->
<g id="node4" class="node">
<title>OB</title>
<path fill="#fff3e0" stroke="#e65100" stroke-width="2" d="M269,-358C269,-358 183,-358 183,-358 177,-358 171,-352 171,-346 171,-346 171,-334 171,-334 171,-328 177,-322 183,-322 183,-322 269,-322 269,-322 275,-322 281,-328 281,-334 281,-334 281,-346 281,-346 281,-352 275,-358 269,-358"/>
<text text-anchor="start" x="177" y="-343.6" font-family="Montserrat Bold" font-size="13.00" fill="#bf360c">Observability</text>
<text text-anchor="start" x="181" y="-329.6" font-family="Montserrat Bold" font-size="13.00" fill="#bf360c">&amp; Telemetry</text>
</g>
<!-- Root&#45;&#45;OB -->
<g id="edge3" class="edge">
<title>Root&#45;&#45;OB</title>
<path fill="none" stroke="#999999" stroke-width="1.5" d="M273.89,-287.95C262.82,-299.98 251.6,-312.17 242.81,-321.72"/>
</g>
<!-- SO -->
<g id="node5" class="node">
<title>SO</title>
<path fill="#fce4ec" stroke="#c62828" stroke-width="2" d="M481.5,-348C481.5,-348 368.5,-348 368.5,-348 362.5,-348 356.5,-342 356.5,-336 356.5,-336 356.5,-324 356.5,-324 356.5,-318 362.5,-312 368.5,-312 368.5,-312 481.5,-312 481.5,-312 487.5,-312 493.5,-318 493.5,-324 493.5,-324 493.5,-336 493.5,-336 493.5,-342 487.5,-348 481.5,-348"/>
<text text-anchor="start" x="362.5" y="-333.6" font-family="Montserrat Bold" font-size="13.00" fill="#b71c1c">State Operations</text>
<text text-anchor="start" x="406.5" y="-319.6" font-family="Montserrat Bold" font-size="13.00" fill="#b71c1c">&amp; UX</text>
</g>
<!-- Root&#45;&#45;SO -->
<g id="edge4" class="edge">
<title>Root&#45;&#45;SO</title>
<path fill="none" stroke="#999999" stroke-width="1.5" d="M368.05,-282.1C380.56,-292.62 393.33,-303.36 403.59,-311.99"/>
</g>
<!-- NHI -->
<g id="node6" class="node">
<title>NHI</title>
<path fill="#fff9c4" stroke="#f9a825" stroke-width="2.5" d="M98,-280C98,-280 28,-280 28,-280 22,-280 16,-274 16,-268 16,-268 16,-256 16,-256 16,-250 22,-244 28,-244 28,-244 98,-244 98,-244 104,-244 110,-250 110,-256 110,-256 110,-268 110,-268 110,-274 104,-280 98,-280"/>
<text text-anchor="start" x="22" y="-265.4" font-family="Montserrat Bold" font-size="12.00">NHI Identity</text>
<text text-anchor="start" x="38" y="-252.4" font-family="Montserrat Bold" font-size="12.00">Binding</text>
</g>
<!-- ID&#45;&#45;NHI -->
<g id="edge5" class="edge">
<title>ID&#45;&#45;NHI</title>
<path fill="none" stroke="#999999" stroke-width="1.5" d="M179.35,-188.18C153.93,-204.31 116.99,-227.74 91.59,-243.86"/>
</g>
<!-- IBA -->
<g id="node7" class="node">
<title>IBA</title>
<path fill="white" stroke="#bbbbbb" d="M83,-80C83,-80 15,-80 15,-80 9,-80 3,-74 3,-68 3,-68 3,-56 3,-56 3,-50 9,-44 15,-44 15,-44 83,-44 83,-44 89,-44 95,-50 95,-56 95,-56 95,-68 95,-68 95,-74 89,-80 83,-80"/>
<text text-anchor="start" x="11" y="-65.4" font-family="Montserrat" font-size="12.00" fill="#333333">Intent&#45;Based</text>
<text text-anchor="start" x="9" y="-52.4" font-family="Montserrat" font-size="12.00" fill="#333333">Authorization</text>
</g>
<!-- ID&#45;&#45;IBA -->
<g id="edge6" class="edge">
<title>ID&#45;&#45;IBA</title>
<path fill="none" stroke="#999999" stroke-width="1.5" d="M181.39,-151.92C152.04,-131.99 105.08,-100.1 75.7,-80.14"/>
</g>
<!-- ISHA -->
<g id="node8" class="node">
<title>ISHA</title>
<path fill="white" stroke="#bbbbbb" d="M413.5,-49C413.5,-49 298.5,-49 298.5,-49 292.5,-49 286.5,-43 286.5,-37 286.5,-37 286.5,-25 286.5,-25 286.5,-19 292.5,-13 298.5,-13 298.5,-13 413.5,-13 413.5,-13 419.5,-13 425.5,-19 425.5,-25 425.5,-25 425.5,-37 425.5,-37 425.5,-43 419.5,-49 413.5,-49"/>
<text text-anchor="start" x="292.5" y="-34.4" font-family="Montserrat" font-size="12.00" fill="#333333">Inter&#45;Agent Semantic</text>
<text text-anchor="start" x="301.5" y="-21.4" font-family="Montserrat" font-size="12.00" fill="#333333">Health Attestation</text>
</g>
<!-- ID&#45;&#45;ISHA -->
<g id="edge7" class="edge">
<title>ID&#45;&#45;ISHA</title>
<path fill="none" stroke="#999999" stroke-width="1.5" d="M227.35,-151.83C255.71,-125.19 308.28,-75.82 336.65,-49.18"/>
</g>
<!-- DCIS -->
<g id="node9" class="node">
<title>DCIS</title>
<path fill="white" stroke="#bbbbbb" d="M260.5,-36C260.5,-36 133.5,-36 133.5,-36 127.5,-36 121.5,-30 121.5,-24 121.5,-24 121.5,-12 121.5,-12 121.5,-6 127.5,0 133.5,0 133.5,0 260.5,0 260.5,0 266.5,0 272.5,-6 272.5,-12 272.5,-12 272.5,-24 272.5,-24 272.5,-30 266.5,-36 260.5,-36"/>
<text text-anchor="start" x="145.5" y="-21.4" font-family="Montserrat" font-size="12.00" fill="#333333">Dynamic Context</text>
<text text-anchor="start" x="127.5" y="-8.4" font-family="Montserrat" font-size="12.00" fill="#333333">Impersonation at Scale</text>
</g>
<!-- ID&#45;&#45;DCIS -->
<g id="edge8" class="edge">
<title>ID&#45;&#45;DCIS</title>
<path fill="none" stroke="#999999" stroke-width="1.5" d="M206.69,-151.97C204.58,-122.71 200.42,-65.25 198.3,-36.01"/>
</g>
<!-- PRI -->
<g id="node10" class="node">
<title>PRI</title>
<path fill="#fff9c4" stroke="#f9a825" stroke-width="2.5" d="M625.5,-53C625.5,-53 494.5,-53 494.5,-53 488.5,-53 482.5,-47 482.5,-41 482.5,-41 482.5,-29 482.5,-29 482.5,-23 488.5,-17 494.5,-17 494.5,-17 625.5,-17 625.5,-17 631.5,-17 637.5,-23 637.5,-29 637.5,-29 637.5,-41 637.5,-41 637.5,-47 631.5,-53 625.5,-53"/>
<text text-anchor="start" x="488.5" y="-38.4" font-family="Montserrat Bold" font-size="12.00">Provable Robustness</text>
<text text-anchor="start" x="523.5" y="-25.4" font-family="Montserrat Bold" font-size="12.00">against IPI</text>
</g>
<!-- CS&#45;&#45;PRI -->
<g id="edge9" class="edge">
<title>CS&#45;&#45;PRI</title>
<path fill="none" stroke="#999999" stroke-width="1.5" d="M446.35,-147.79C471.57,-122.76 516.67,-78.01 541.8,-53.06"/>
</g>
<!-- SME -->
<g id="node11" class="node">
<title>SME</title>
<path fill="white" stroke="#bbbbbb" d="M620.5,-246C620.5,-246 549.5,-246 549.5,-246 543.5,-246 537.5,-240 537.5,-234 537.5,-234 537.5,-222 537.5,-222 537.5,-216 543.5,-210 549.5,-210 549.5,-210 620.5,-210 620.5,-210 626.5,-210 632.5,-216 632.5,-222 632.5,-222 632.5,-234 632.5,-234 632.5,-240 626.5,-246 620.5,-246"/>
<text text-anchor="start" x="543.5" y="-231.4" font-family="Montserrat" font-size="12.00" fill="#333333">The Semantic</text>
<text text-anchor="start" x="545" y="-218.4" font-family="Montserrat" font-size="12.00" fill="#333333">Mosaic Effect</text>
</g>
<!-- CS&#45;&#45;SME -->
<g id="edge10" class="edge">
<title>CS&#45;&#45;SME</title>
<path fill="none" stroke="#999999" stroke-width="1.5" d="M473.83,-184.1C494.47,-192.25 518.77,-201.85 539.38,-209.99"/>
</g>
<!-- STS -->
<g id="node12" class="node">
<title>STS</title>
<path fill="white" stroke="#bbbbbb" d="M120,-477C120,-477 12,-477 12,-477 6,-477 0,-471 0,-465 0,-465 0,-453 0,-453 0,-447 6,-441 12,-441 12,-441 120,-441 120,-441 126,-441 132,-447 132,-453 132,-453 132,-465 132,-465 132,-471 126,-477 120,-477"/>
<text text-anchor="start" x="6" y="-462.4" font-family="Montserrat" font-size="12.00" fill="#333333">Semantic Telemetry</text>
<text text-anchor="start" x="19" y="-449.4" font-family="Montserrat" font-size="12.00" fill="#333333">Standardization</text>
</g>
<!-- OB&#45;&#45;STS -->
<g id="edge11" class="edge">
<title>OB&#45;&#45;STS</title>
<path fill="none" stroke="#999999" stroke-width="1.5" d="M201.7,-358.07C171.54,-380.51 120.41,-418.53 90.27,-440.95"/>
</g>
<!-- LLIP -->
<g id="node13" class="node">
<title>LLIP</title>
<path fill="white" stroke="#bbbbbb" d="M282.5,-504C282.5,-504 211.5,-504 211.5,-504 205.5,-504 199.5,-498 199.5,-492 199.5,-492 199.5,-480 199.5,-480 199.5,-474 205.5,-468 211.5,-468 211.5,-468 282.5,-468 282.5,-468 288.5,-468 294.5,-474 294.5,-480 294.5,-480 294.5,-492 294.5,-492 294.5,-498 288.5,-504 282.5,-504"/>
<text text-anchor="start" x="209" y="-489.4" font-family="Montserrat" font-size="12.00" fill="#333333">Low&#45;Latency</text>
<text text-anchor="start" x="205.5" y="-476.4" font-family="Montserrat" font-size="12.00" fill="#333333">Intent Parsing</text>
</g>
<!-- OB&#45;&#45;LLIP -->
<g id="edge12" class="edge">
<title>OB&#45;&#45;LLIP</title>
<path fill="none" stroke="#999999" stroke-width="1.5" d="M228.62,-358.2C232.64,-386.17 240.31,-439.46 244.35,-467.57"/>
</g>
<!-- RESD -->
<g id="node14" class="node">
<title>RESD</title>
<path fill="white" stroke="#bbbbbb" d="M640,-462C640,-462 528,-462 528,-462 522,-462 516,-456 516,-450 516,-450 516,-438 516,-438 516,-432 522,-426 528,-426 528,-426 640,-426 640,-426 646,-426 652,-432 652,-438 652,-438 652,-450 652,-450 652,-456 646,-462 640,-462"/>
<text text-anchor="start" x="522" y="-447.4" font-family="Montserrat" font-size="12.00" fill="#333333">Reverse&#45;Engineering</text>
<text text-anchor="start" x="553.5" y="-434.4" font-family="Montserrat" font-size="12.00" fill="#333333">State Drift</text>
</g>
<!-- SO&#45;&#45;RESD -->
<g id="edge13" class="edge">
<title>SO&#45;&#45;RESD</title>
<path fill="none" stroke="#999999" stroke-width="1.5" d="M450.19,-348.06C479.88,-369.35 528.91,-404.5 558.66,-425.83"/>
</g>
<!-- MAB -->
<g id="node15" class="node">
<title>MAB</title>
<path fill="white" stroke="#bbbbbb" d="M475.5,-503C475.5,-503 354.5,-503 354.5,-503 348.5,-503 342.5,-497 342.5,-491 342.5,-491 342.5,-479 342.5,-479 342.5,-473 348.5,-467 354.5,-467 354.5,-467 475.5,-467 475.5,-467 481.5,-467 487.5,-473 487.5,-479 487.5,-479 487.5,-491 487.5,-491 487.5,-497 481.5,-503 475.5,-503"/>
<text text-anchor="start" x="348.5" y="-488.4" font-family="Montserrat" font-size="12.00" fill="#333333">Mitigating Automation</text>
<text text-anchor="start" x="384.5" y="-475.4" font-family="Montserrat" font-size="12.00" fill="#333333">Bias in UX</text>
</g>
<!-- SO&#45;&#45;MAB -->
<g id="edge14" class="edge">
<title>SO&#45;&#45;MAB</title>
<path fill="none" stroke="#999999" stroke-width="1.5" d="M423.83,-348.08C421.92,-377.79 418.12,-436.61 416.19,-466.55"/>
</g>
</g>
</svg>
