<?xml version="1.0" encoding="UTF-8" standalone="no"?>
<!DOCTYPE svg PUBLIC "-//W3C//DTD SVG 1.1//EN"
 "http://www.w3.org/Graphics/SVG/1.1/DTD/svg11.dtd">
<!-- Generated by graphviz version 2.43.0 (0)
 -->
<!-- Title: research_tree Pages: 1 -->
<svg width="216pt" height="167pt"
 viewBox="0.00 0.00 216.00 166.93" xmlns="http://www.w3.org/2000/svg" xmlns:xlink="http://www.w3.org/1999/xlink">
<g id="graph0" class="graph" transform="scale(0.33 0.33) rotate(0) translate(4 508)">
<title>research_tree</title>
<!-- Root -->
<g id="node1" class="node">
<title>Root</title>
<ellipse fill="#1a237e" stroke="black" cx="320.5" cy="-240" rx="65" ry="65"/>
<text text-anchor="start" x="256.5" y="-245" font-family="Montserrat Bold" font-size="15.00" fill="white">Open Research</text>
<text text-anchor="start" x="273.5" y="-228" font-family="Montserrat Bold" font-size="15.00" fill="white">Challenges</text>
</g>
<!-- ID -->
<g id="node2" class="node">
<title>ID</title>
<path fill="#e8f5e9" stroke="#2e7d32" stroke-width="2" d="M266.5,-188C266.5,-188 154.5,-188 154.5,-188 148.5,-188 142.5,-182 142.5,-176 142.5,-176 142.5,-164 142.5,-164 142.5,-158 148.5,-152 154.5,-152 154.5,-152 266.5,-152 266.5,-152 272.5,-152 278.5,-158 278.5,-164 278.5,-164 278.5,-176 278.5,-176 278.5,-182 272.5,-188 266.5,-188"/>
<text text-anchor="start" x="174" y="-173.6" font-family="Montserrat Bold" font-size="13.00" fill="#1b5e20">Identity &amp;</text>
<text text-anchor="start" x="148.5" y="-159.6" font-family="Montserrat Bold" font-size="13.00" fill="#1b5e20">Trust Boundaries</text>
</g>
<!-- Root&#45;&#45;ID -->
<g id="edge1" class="edge">
<title>Root&#45;&#45;ID</title>
<path fill="none" stroke="#999999" stroke-width="1.5" d="M265.5,-205C256.26,-199.12 247.02,-193.24 238.83,-188.03"/>
</g>
<!-- CS -->
<g id="node3" class="node">
<title>CS</title>
<path fill="#e3f2fd" stroke="#1565c0" stroke-width="2" d="M491.5,-184C491.5,-184 369.5,-184 369.5,-184 363.5,-184 357.5,-178 357.5,-172 357.5,-172 357.5,-160 357.5,-160 357.5,-154 363.5,-148 369.5,-148 369.5,-148 491.5,-148 491.5,-148 497.5,-148 503.5,-154 503.5,-160 503.5,-160 503.5,-172 503.5,-172 503.5,-178 497.5,-184 491.5,-184"/>
<text text-anchor="start" x="363.5" y="-169.6" font-family="Montserrat Bold" font-size="13.00" fill="#0d47a1">Cognitive Security</text>
<text text-anchor="start" x="405" y="-155.6" font-family="Montserrat Bold" font-size="13.00" fill="#0d47a1">&amp; Data</text>
</g>
<!-- Root&#45;&#45;CS -->
<g id="edge2" class="edge">
<title>Root&#45;&#45;CS</title>
<path fill="none" stroke="#999999" stroke-width="1.5" d="M374.53,-203.65C384.64,-196.85 394.79,-190.02 403.62,-184.09"/>
</g>
<!-- OB -->
<g id="node4" class="node">
<title>OB</title>
<path fill="#fff3e0" stroke="#e65100" stroke-width="2" d="M271.5,-358C271.5,-358 185.5,-358 185.5,-358 179.5,-358 173.5,-352 173.5,-346 173.5,-346 173.5,-334 173.5,-334 173.5,-328 179.5,-322 185.5,-322 185.5,-322 271.5,-322 271.5,-322 277.5,-322 283.5,-328 283.5,-334 283.5,-334 283.5,-346 283.5,-346 283.5,-352 277.5,-358 271.5,-358"/>
<text text-anchor="start" x="179.5" y="-343.6" font-family="Montserrat Bold" font-size="13.00" fill="#bf360c">Observability</text>
<text text-anchor="start" x="183.5" y="-329.6" font-family="Montserrat Bold" font-size="13.00" fill="#bf360c">&amp; Telemetry</text>
</g>
<!-- Root&#45;&#45;OB -->
<g id="edge3" class="edge">
<title>Root&#45;&#45;OB</title>
<path fill="none" stroke="#999999" stroke-width="1.5" d="M276.39,-287.95C265.32,-299.98 254.1,-312.17 245.31,-321.72"/>
</g>
<!-- SO -->
<g id="node5" class="node">
<title>SO</title>
<path fill="#fce4ec" stroke="#c62828" stroke-width="2" d="M484,-348C484,-348 371,-348 371,-348 365,-348 359,-342 359,-336 359,-336 359,-324 359,-324 359,-318 365,-312 371,-312 371,-312 484,-312 484,-312 490,-312 496,-318 496,-324 496,-324 496,-336 496,-336 496,-342 490,-348 484,-348"/>
<text text-anchor="start" x="365" y="-333.6" font-family="Montserrat Bold" font-size="13.00" fill="#b71c1c">State Operations</text>
<text text-anchor="start" x="409" y="-319.6" font-family="Montserrat Bold" font-size="13.00" fill="#b71c1c">&amp; UX</text>
</g>
<!-- Root&#45;&#45;SO -->
<g id="edge4" class="edge">
<title>Root&#45;&#45;SO</title>
<path fill="none" stroke="#999999" stroke-width="1.5" d="M370.55,-282.1C383.06,-292.62 395.83,-303.36 406.09,-311.99"/>
</g>
<!-- NHI -->
<g id="node6" class="node">
<title>NHI</title>
<path fill="white" stroke="#bbbbbb" d="M95,-280C95,-280 36,-280 36,-280 30,-280 24,-274 24,-268 24,-268 24,-256 24,-256 24,-250 30,-244 36,-244 36,-244 95,-244 95,-244 101,-244 107,-250 107,-256 107,-256 107,-268 107,-268 107,-274 101,-280 95,-280"/>
<text text-anchor="start" x="30" y="-265.4" font-family="Montserrat" font-size="12.00" fill="#333333">NHI Identity</text>
<text text-anchor="start" x="43" y="-252.4" font-family="Montserrat" font-size="12.00" fill="#333333">Binding</text>
</g>
<!-- ID&#45;&#45;NHI -->
<g id="edge5" class="edge">
<title>ID&#45;&#45;NHI</title>
<path fill="none" stroke="#999999" stroke-width="1.5" d="M181.85,-188.18C156.43,-204.31 119.49,-227.74 94.09,-243.86"/>
</g>
<!-- IBA -->
<g id="node7" class="node">
<title>IBA</title>
<path fill="#fff9c4" stroke="#f9a825" stroke-width="2.5" d="M91,-80C91,-80 12,-80 12,-80 6,-80 0,-74 0,-68 0,-68 0,-56 0,-56 0,-50 6,-44 12,-44 12,-44 91,-44 91,-44 97,-44 103,-50 103,-56 103,-56 103,-68 103,-68 103,-74 97,-80 91,-80"/>
<text text-anchor="start" x="7.5" y="-65.4" font-family="Montserrat Bold" font-size="12.00">Intent&#45;Based</text>
<text text-anchor="start" x="6" y="-52.4" font-family="Montserrat Bold" font-size="12.00">Authorization</text>
</g>
<!-- ID&#45;&#45;IBA -->
<g id="edge6" class="edge">
<title>ID&#45;&#45;IBA</title>
<path fill="none" stroke="#999999" stroke-width="1.5" d="M183.89,-151.92C154.54,-131.99 107.58,-100.1 78.2,-80.14"/>
</g>
<!-- ISHA -->
<g id="node8" class="node">
<title>ISHA</title>
<path fill="#fff9c4" stroke="#f9a825" stroke-width="2.5" d="M425.5,-49C425.5,-49 291.5,-49 291.5,-49 285.5,-49 279.5,-43 279.5,-37 279.5,-37 279.5,-25 279.5,-25 279.5,-19 285.5,-13 291.5,-13 291.5,-13 425.5,-13 425.5,-13 431.5,-13 437.5,-19 437.5,-25 437.5,-25 437.5,-37 437.5,-37 437.5,-43 431.5,-49 425.5,-49"/>
<text text-anchor="start" x="285.5" y="-34.4" font-family="Montserrat Bold" font-size="12.00">Inter&#45;Agent Semantic</text>
<text text-anchor="start" x="295" y="-21.4" font-family="Montserrat Bold" font-size="12.00">Health Attestation</text>
</g>
<!-- ID&#45;&#45;ISHA -->
<g id="edge7" class="edge">
<title>ID&#45;&#45;ISHA</title>
<path fill="none" stroke="#999999" stroke-width="1.5" d="M229.85,-151.83C258.21,-125.19 310.78,-75.82 339.15,-49.18"/>
</g>
<!-- DCIS -->
<g id="node9" class="node">
<title>DCIS</title>
<path fill="white" stroke="#bbbbbb" d="M263,-36C263,-36 136,-36 136,-36 130,-36 124,-30 124,-24 124,-24 124,-12 124,-12 124,-6 130,0 136,0 136,0 263,0 263,0 269,0 275,-6 275,-12 275,-12 275,-24 275,-24 275,-30 269,-36 263,-36"/>
<text text-anchor="start" x="148" y="-21.4" font-family="Montserrat" font-size="12.00" fill="#333333">Dynamic Context</text>
<text text-anchor="start" x="130" y="-8.4" font-family="Montserrat" font-size="12.00" fill="#333333">Impersonation at Scale</text>
</g>
<!-- ID&#45;&#45;DCIS -->
<g id="edge8" class="edge">
<title>ID&#45;&#45;DCIS</title>
<path fill="none" stroke="#999999" stroke-width="1.5" d="M209.19,-151.97C207.08,-122.71 202.92,-65.25 200.8,-36.01"/>
</g>
<!-- PRI -->
<g id="node10" class="node">
<title>PRI</title>
<path fill="white" stroke="#bbbbbb" d="M618,-53C618,-53 507,-53 507,-53 501,-53 495,-47 495,-41 495,-41 495,-29 495,-29 495,-23 501,-17 507,-17 507,-17 618,-17 618,-17 624,-17 630,-23 630,-29 630,-29 630,-41 630,-41 630,-47 624,-53 618,-53"/>
<text text-anchor="start" x="501" y="-38.4" font-family="Montserrat" font-size="12.00" fill="#333333">Provable Robustness</text>
<text text-anchor="start" x="531" y="-25.4" font-family="Montserrat" font-size="12.00" fill="#333333">against IPI</text>
</g>
<!-- CS&#45;&#45;PRI -->
<g id="edge9" class="edge">
<title>CS&#45;&#45;PRI</title>
<path fill="none" stroke="#999999" stroke-width="1.5" d="M448.85,-147.79C474.07,-122.76 519.17,-78.01 544.3,-53.06"/>
</g>
<!-- SME -->
<g id="node11" class="node">
<title>SME</title>
<path fill="white" stroke="#bbbbbb" d="M623,-246C623,-246 552,-246 552,-246 546,-246 540,-240 540,-234 540,-234 540,-222 540,-222 540,-216 546,-210 552,-210 552,-210 623,-210 623,-210 629,-210 635,-216 635,-222 635,-222 635,-234 635,-234 635,-240 629,-246 623,-246"/>
<text text-anchor="start" x="546" y="-231.4" font-family="Montserrat" font-size="12.00" fill="#333333">The Semantic</text>
<text text-anchor="start" x="547.5" y="-218.4" font-family="Montserrat" font-size="12.00" fill="#333333">Mosaic Effect</text>
</g>
<!-- CS&#45;&#45;SME -->
<g id="edge10" class="edge">
<title>CS&#45;&#45;SME</title>
<path fill="none" stroke="#999999" stroke-width="1.5" d="M476.33,-184.1C496.97,-192.25 521.27,-201.85 541.88,-209.99"/>
</g>
<!-- STS -->
<g id="node12" class="node">
<title>STS</title>
<path fill="white" stroke="#bbbbbb" d="M122.5,-477C122.5,-477 14.5,-477 14.5,-477 8.5,-477 2.5,-471 2.5,-465 2.5,-465 2.5,-453 2.5,-453 2.5,-447 8.5,-441 14.5,-441 14.5,-441 122.5,-441 122.5,-441 128.5,-441 134.5,-447 134.5,-453 134.5,-453 134.5,-465 134.5,-465 134.5,-471 128.5,-477 122.5,-477"/>
<text text-anchor="start" x="8.5" y="-462.4" font-family="Montserrat" font-size="12.00" fill="#333333">Semantic Telemetry</text>
<text text-anchor="start" x="21.5" y="-449.4" font-family="Montserrat" font-size="12.00" fill="#333333">Standardization</text>
</g>
<!-- OB&#45;&#45;STS -->
<g id="edge11" class="edge">
<title>OB&#45;&#45;STS</title>
<path fill="none" stroke="#999999" stroke-width="1.5" d="M204.2,-358.07C174.04,-380.51 122.91,-418.53 92.77,-440.95"/>
</g>
<!-- LLIP -->
<g id="node13" class="node">
<title>LLIP</title>
<path fill="white" stroke="#bbbbbb" d="M285,-504C285,-504 214,-504 214,-504 208,-504 202,-498 202,-492 202,-492 202,-480 202,-480 202,-474 208,-468 214,-468 214,-468 285,-468 285,-468 291,-468 297,-474 297,-480 297,-480 297,-492 297,-492 297,-498 291,-504 285,-504"/>
<text text-anchor="start" x="211.5" y="-489.4" font-family="Montserrat" font-size="12.00" fill="#333333">Low&#45;Latency</text>
<text text-anchor="start" x="208" y="-476.4" font-family="Montserrat" font-size="12.00" fill="#333333">Intent Parsing</text>
</g>
<!-- OB&#45;&#45;LLIP -->
<g id="edge12" class="edge">
<title>OB&#45;&#45;LLIP</title>
<path fill="none" stroke="#999999" stroke-width="1.5" d="M231.12,-358.2C235.14,-386.17 242.81,-439.46 246.85,-467.57"/>
</g>
<!-- RESD -->
<g id="node14" class="node">
<title>RESD</title>
<path fill="white" stroke="#bbbbbb" d="M642.5,-462C642.5,-462 530.5,-462 530.5,-462 524.5,-462 518.5,-456 518.5,-450 518.5,-450 518.5,-438 518.5,-438 518.5,-432 524.5,-426 530.5,-426 530.5,-426 642.5,-426 642.5,-426 648.5,-426 654.5,-432 654.5,-438 654.5,-438 654.5,-450 654.5,-450 654.5,-456 648.5,-462 642.5,-462"/>
<text text-anchor="start" x="524.5" y="-447.4" font-family="Montserrat" font-size="12.00" fill="#333333">Reverse&#45;Engineering</text>
<text text-anchor="start" x="556" y="-434.4" font-family="Montserrat" font-size="12.00" fill="#333333">State Drift</text>
</g>
<!-- SO&#45;&#45;RESD -->
<g id="edge13" class="edge">
<title>SO&#45;&#45;RESD</title>
<path fill="none" stroke="#999999" stroke-width="1.5" d="M452.69,-348.06C482.38,-369.35 531.41,-404.5 561.16,-425.83"/>
</g>
<!-- MAB -->
<g id="node15" class="node">
<title>MAB</title>
<path fill="white" stroke="#bbbbbb" d="M478,-503C478,-503 357,-503 357,-503 351,-503 345,-497 345,-491 345,-491 345,-479 345,-479 345,-473 351,-467 357,-467 357,-467 478,-467 478,-467 484,-467 490,-473 490,-479 490,-479 490,-491 490,-491 490,-497 484,-503 478,-503"/>
<text text-anchor="start" x="351" y="-488.4" font-family="Montserrat" font-size="12.00" fill="#333333">Mitigating Automation</text>
<text text-anchor="start" x="387" y="-475.4" font-family="Montserrat" font-size="12.00" fill="#333333">Bias in UX</text>
</g>
<!-- SO&#45;&#45;MAB -->
<g id="edge14" class="edge">
<title>SO&#45;&#45;MAB</title>
<path fill="none" stroke="#999999" stroke-width="1.5" d="M426.33,-348.08C424.42,-377.79 420.62,-436.61 418.69,-466.55"/>
</g>
</g>
</svg>
