<?xml version="1.0" encoding="UTF-8" standalone="no"?>
<!DOCTYPE svg PUBLIC "-//W3C//DTD SVG 1.1//EN"
 "http://www.w3.org/Graphics/SVG/1.1/DTD/svg11.dtd">
<!-- Generated by graphviz version 2.43.0 (0)
 -->
<!-- Title: research_tree Pages: 1 -->
<svg width="421pt" height="323pt"
 viewBox="0.00 0.00 421.00 322.68" xmlns="http://www.w3.org/2000/svg" xmlns:xlink="http://www.w3.org/1999/xlink">
<g id="graph0" class="graph" transform="scale(0.63 0.63) rotate(0) translate(4 508)">
<title>research_tree</title>
<!-- Root -->
<g id="node1" class="node">
<title>Root</title>
<ellipse fill="#1a237e" stroke="black" cx="326" cy="-240" rx="65" ry="65"/>
<text text-anchor="start" x="262" y="-245" font-family="Montserrat Bold" font-size="15.00" fill="white">Open Research</text>
<text text-anchor="start" x="279" y="-228" font-family="Montserrat Bold" font-size="15.00" fill="white">Challenges</text>
</g>
<!-- ID -->
<g id="node2" class="node">
<title>ID</title>
<path fill="#e8f5e9" stroke="#2e7d32" stroke-width="2" d="M272,-188C272,-188 160,-188 160,-188 154,-188 148,-182 148,-176 148,-176 148,-164 148,-164 148,-158 154,-152 160,-152 160,-152 272,-152 272,-152 278,-152 284,-158 284,-164 284,-164 284,-176 284,-176 284,-182 278,-188 272,-188"/>
<text text-anchor="start" x="179.5" y="-173.6" font-family="Montserrat Bold" font-size="13.00" fill="#1b5e20">Identity &amp;</text>
<text text-anchor="start" x="154" y="-159.6" font-family="Montserrat Bold" font-size="13.00" fill="#1b5e20">Trust Boundaries</text>
</g>
<!-- Root&#45;&#45;ID -->
<g id="edge1" class="edge">
<title>Root&#45;&#45;ID</title>
<path fill="none" stroke="#999999" stroke-width="1.5" d="M271,-205C261.76,-199.12 252.52,-193.24 244.33,-188.03"/>
</g>
<!-- CS -->
<g id="node3" class="node">
<title>CS</title>
<path fill="#e3f2fd" stroke="#1565c0" stroke-width="2" d="M497,-184C497,-184 375,-184 375,-184 369,-184 363,-178 363,-172 363,-172 363,-160 363,-160 363,-154 369,-148 375,-148 375,-148 497,-148 497,-148 503,-148 509,-154 509,-160 509,-160 509,-172 509,-172 509,-178 503,-184 497,-184"/>
<text text-anchor="start" x="369" y="-169.6" font-family="Montserrat Bold" font-size="13.00" fill="#0d47a1">Cognitive Security</text>
<text text-anchor="start" x="410.5" y="-155.6" font-family="Montserrat Bold" font-size="13.00" fill="#0d47a1">&amp; Data</text>
</g>
<!-- Root&#45;&#45;CS -->
<g id="edge2" class="edge">
<title>Root&#45;&#45;CS</title>
<path fill="none" stroke="#999999" stroke-width="1.5" d="M380.03,-203.65C390.14,-196.85 400.29,-190.02 409.12,-184.09"/>
</g>
<!-- OB -->
<g id="node4" class="node">
<title>OB</title>
<path fill="#fff3e0" stroke="#e65100" stroke-width="2" d="M277,-358C277,-358 191,-358 191,-358 185,-358 179,-352 179,-346 179,-346 179,-334 179,-334 179,-328 185,-322 191,-322 191,-322 277,-322 277,-322 283,-322 289,-328 289,-334 289,-334 289,-346 289,-346 289,-352 283,-358 277,-358"/>
<text text-anchor="start" x="185" y="-343.6" font-family="Montserrat Bold" font-size="13.00" fill="#bf360c">Observability</text>
<text text-anchor="start" x="189" y="-329.6" font-family="Montserrat Bold" font-size="13.00" fill="#bf360c">&amp; Telemetry</text>
</g>
<!-- Root&#45;&#45;OB -->
<g id="edge3" class="edge">
<title>Root&#45;&#45;OB</title>
<path fill="none" stroke="#999999" stroke-width="1.5" d="M281.89,-287.95C270.82,-299.98 259.6,-312.17 250.81,-321.72"/>
</g>
<!-- SO -->
<g id="node5" class="node">
<title>SO</title>
<path fill="#fce4ec" stroke="#c62828" stroke-width="2" d="M489.5,-348C489.5,-348 376.5,-348 376.5,-348 370.5,-348 364.5,-342 364.5,-336 364.5,-336 364.5,-324 364.5,-324 364.5,-318 370.5,-312 376.5,-312 376.5,-312 489.5,-312 489.5,-312 495.5,-312 501.5,-318 501.5,-324 501.5,-324 501.5,-336 501.5,-336 501.5,-342 495.5,-348 489.5,-348"/>
<text text-anchor="start" x="370.5" y="-333.6" font-family="Montserrat Bold" font-size="13.00" fill="#b71c1c">State Operations</text>
<text text-anchor="start" x="414.5" y="-319.6" font-family="Montserrat Bold" font-size="13.00" fill="#b71c1c">&amp; UX</text>
</g>
<!-- Root&#45;&#45;SO -->
<g id="edge4" class="edge">
<title>Root&#45;&#45;SO</title>
<path fill="none" stroke="#999999" stroke-width="1.5" d="M376.05,-282.1C388.56,-292.62 401.33,-303.36 411.59,-311.99"/>
</g>
<!-- NHI -->
<g id="node6" class="node">
<title>NHI</title>
<path fill="white" stroke="#bbbbbb" d="M100.5,-280C100.5,-280 41.5,-280 41.5,-280 35.5,-280 29.5,-274 29.5,-268 29.5,-268 29.5,-256 29.5,-256 29.5,-250 35.5,-244 41.5,-244 41.5,-244 100.5,-244 100.5,-244 106.5,-244 112.5,-250 112.5,-256 112.5,-256 112.5,-268 112.5,-268 112.5,-274 106.5,-280 100.5,-280"/>
<text text-anchor="start" x="35.5" y="-265.4" font-family="Montserrat" font-size="12.00" fill="#333333">NHI Identity</text>
<text text-anchor="start" x="48.5" y="-252.4" font-family="Montserrat" font-size="12.00" fill="#333333">Binding</text>
</g>
<!-- ID&#45;&#45;NHI -->
<g id="edge5" class="edge">
<title>ID&#45;&#45;NHI</title>
<path fill="none" stroke="#999999" stroke-width="1.5" d="M187.35,-188.18C161.93,-204.31 124.99,-227.74 99.59,-243.86"/>
</g>
<!-- IBA -->
<g id="node7" class="node">
<title>IBA</title>
<path fill="white" stroke="#bbbbbb" d="M91,-80C91,-80 23,-80 23,-80 17,-80 11,-74 11,-68 11,-68 11,-56 11,-56 11,-50 17,-44 23,-44 23,-44 91,-44 91,-44 97,-44 103,-50 103,-56 103,-56 103,-68 103,-68 103,-74 97,-80 91,-80"/>
<text text-anchor="start" x="19" y="-65.4" font-family="Montserrat" font-size="12.00" fill="#333333">Intent&#45;Based</text>
<text text-anchor="start" x="17" y="-52.4" font-family="Montserrat" font-size="12.00" fill="#333333">Authorization</text>
</g>
<!-- ID&#45;&#45;IBA -->
<g id="edge6" class="edge">
<title>ID&#45;&#45;IBA</title>
<path fill="none" stroke="#999999" stroke-width="1.5" d="M189.39,-151.92C160.04,-131.99 113.08,-100.1 83.7,-80.14"/>
</g>
<!-- ISHA -->
<g id="node8" class="node">
<title>ISHA</title>
<path fill="white" stroke="#bbbbbb" d="M421.5,-49C421.5,-49 306.5,-49 306.5,-49 300.5,-49 294.5,-43 294.5,-37 294.5,-37 294.5,-25 294.5,-25 294.5,-19 300.5,-13 306.5,-13 306.5,-13 421.5,-13 421.5,-13 427.5,-13 433.5,-19 433.5,-25 433.5,-25 433.5,-37 433.5,-37 433.5,-43 427.5,-49 421.5,-49"/>
<text text-anchor="start" x="300.5" y="-34.4" font-family="Montserrat" font-size="12.00" fill="#333333">Inter&#45;Agent Semantic</text>
<text text-anchor="start" x="309.5" y="-21.4" font-family="Montserrat" font-size="12.00" fill="#333333">Health Attestation</text>
</g>
<!-- ID&#45;&#45;ISHA -->
<g id="edge7" class="edge">
<title>ID&#45;&#45;ISHA</title>
<path fill="none" stroke="#999999" stroke-width="1.5" d="M235.35,-151.83C263.71,-125.19 316.28,-75.82 344.65,-49.18"/>
</g>
<!-- DCIS -->
<g id="node9" class="node">
<title>DCIS</title>
<path fill="white" stroke="#bbbbbb" d="M268.5,-36C268.5,-36 141.5,-36 141.5,-36 135.5,-36 129.5,-30 129.5,-24 129.5,-24 129.5,-12 129.5,-12 129.5,-6 135.5,0 141.5,0 141.5,0 268.5,0 268.5,0 274.5,0 280.5,-6 280.5,-12 280.5,-12 280.5,-24 280.5,-24 280.5,-30 274.5,-36 268.5,-36"/>
<text text-anchor="start" x="153.5" y="-21.4" font-family="Montserrat" font-size="12.00" fill="#333333">Dynamic Context</text>
<text text-anchor="start" x="135.5" y="-8.4" font-family="Montserrat" font-size="12.00" fill="#333333">Impersonation at Scale</text>
</g>
<!-- ID&#45;&#45;DCIS -->
<g id="edge8" class="edge">
<title>ID&#45;&#45;DCIS</title>
<path fill="none" stroke="#999999" stroke-width="1.5" d="M214.69,-151.97C212.58,-122.71 208.42,-65.25 206.3,-36.01"/>
</g>
<!-- PRI -->
<g id="node10" class="node">
<title>PRI</title>
<path fill="white" stroke="#bbbbbb" d="M623.5,-53C623.5,-53 512.5,-53 512.5,-53 506.5,-53 500.5,-47 500.5,-41 500.5,-41 500.5,-29 500.5,-29 500.5,-23 506.5,-17 512.5,-17 512.5,-17 623.5,-17 623.5,-17 629.5,-17 635.5,-23 635.5,-29 635.5,-29 635.5,-41 635.5,-41 635.5,-47 629.5,-53 623.5,-53"/>
<text text-anchor="start" x="506.5" y="-38.4" font-family="Montserrat" font-size="12.00" fill="#333333">Provable Robustness</text>
<text text-anchor="start" x="536.5" y="-25.4" font-family="Montserrat" font-size="12.00" fill="#333333">against IPI</text>
</g>
<!-- CS&#45;&#45;PRI -->
<g id="edge9" class="edge">
<title>CS&#45;&#45;PRI</title>
<path fill="none" stroke="#999999" stroke-width="1.5" d="M454.35,-147.79C479.57,-122.76 524.67,-78.01 549.8,-53.06"/>
</g>
<!-- SME -->
<g id="node11" class="node">
<title>SME</title>
<path fill="white" stroke="#bbbbbb" d="M628.5,-246C628.5,-246 557.5,-246 557.5,-246 551.5,-246 545.5,-240 545.5,-234 545.5,-234 545.5,-222 545.5,-222 545.5,-216 551.5,-210 557.5,-210 557.5,-210 628.5,-210 628.5,-210 634.5,-210 640.5,-216 640.5,-222 640.5,-222 640.5,-234 640.5,-234 640.5,-240 634.5,-246 628.5,-246"/>
<text text-anchor="start" x="551.5" y="-231.4" font-family="Montserrat" font-size="12.00" fill="#333333">The Semantic</text>
<text text-anchor="start" x="553" y="-218.4" font-family="Montserrat" font-size="12.00" fill="#333333">Mosaic Effect</text>
</g>
<!-- CS&#45;&#45;SME -->
<g id="edge10" class="edge">
<title>CS&#45;&#45;SME</title>
<path fill="none" stroke="#999999" stroke-width="1.5" d="M481.83,-184.1C502.47,-192.25 526.77,-201.85 547.38,-209.99"/>
</g>
<!-- STS -->
<g id="node12" class="node">
<title>STS</title>
<path fill="#fff9c4" stroke="#f9a825" stroke-width="2.5" d="M136,-477C136,-477 12,-477 12,-477 6,-477 0,-471 0,-465 0,-465 0,-453 0,-453 0,-447 6,-441 12,-441 12,-441 136,-441 136,-441 142,-441 148,-447 148,-453 148,-453 148,-465 148,-465 148,-471 142,-477 136,-477"/>
<text text-anchor="start" x="6" y="-462.4" font-family="Montserrat Bold" font-size="12.00">Semantic Telemetry</text>
<text text-anchor="start" x="20" y="-449.4" font-family="Montserrat Bold" font-size="12.00">Standardization</text>
</g>
<!-- OB&#45;&#45;STS -->
<g id="edge11" class="edge">
<title>OB&#45;&#45;STS</title>
<path fill="none" stroke="#999999" stroke-width="1.5" d="M209.7,-358.07C179.54,-380.51 128.41,-418.53 98.27,-440.95"/>
</g>
<!-- LLIP -->
<g id="node13" class="node">
<title>LLIP</title>
<path fill="#fff9c4" stroke="#f9a825" stroke-width="2.5" d="M297.5,-504C297.5,-504 212.5,-504 212.5,-504 206.5,-504 200.5,-498 200.5,-492 200.5,-492 200.5,-480 200.5,-480 200.5,-474 206.5,-468 212.5,-468 212.5,-468 297.5,-468 297.5,-468 303.5,-468 309.5,-474 309.5,-480 309.5,-480 309.5,-492 309.5,-492 309.5,-498 303.5,-504 297.5,-504"/>
<text text-anchor="start" x="212.5" y="-489.4" font-family="Montserrat Bold" font-size="12.00">Low&#45;Latency</text>
<text text-anchor="start" x="206.5" y="-476.4" font-family="Montserrat Bold" font-size="12.00">Intent Parsing</text>
</g>
<!-- OB&#45;&#45;LLIP -->
<g id="edge12" class="edge">
<title>OB&#45;&#45;LLIP</title>
<path fill="none" stroke="#999999" stroke-width="1.5" d="M236.62,-358.2C240.64,-386.17 248.31,-439.46 252.35,-467.57"/>
</g>
<!-- RESD -->
<g id="node14" class="node">
<title>RESD</title>
<path fill="white" stroke="#bbbbbb" d="M648,-462C648,-462 536,-462 536,-462 530,-462 524,-456 524,-450 524,-450 524,-438 524,-438 524,-432 530,-426 536,-426 536,-426 648,-426 648,-426 654,-426 660,-432 660,-438 660,-438 660,-450 660,-450 660,-456 654,-462 648,-462"/>
<text text-anchor="start" x="530" y="-447.4" font-family="Montserrat" font-size="12.00" fill="#333333">Reverse&#45;Engineering</text>
<text text-anchor="start" x="561.5" y="-434.4" font-family="Montserrat" font-size="12.00" fill="#333333">State Drift</text>
</g>
<!-- SO&#45;&#45;RESD -->
<g id="edge13" class="edge">
<title>SO&#45;&#45;RESD</title>
<path fill="none" stroke="#999999" stroke-width="1.5" d="M458.19,-348.06C487.88,-369.35 536.91,-404.5 566.66,-425.83"/>
</g>
<!-- MAB -->
<g id="node15" class="node">
<title>MAB</title>
<path fill="white" stroke="#bbbbbb" d="M483.5,-503C483.5,-503 362.5,-503 362.5,-503 356.5,-503 350.5,-497 350.5,-491 350.5,-491 350.5,-479 350.5,-479 350.5,-473 356.5,-467 362.5,-467 362.5,-467 483.5,-467 483.5,-467 489.5,-467 495.5,-473 495.5,-479 495.5,-479 495.5,-491 495.5,-491 495.5,-497 489.5,-503 483.5,-503"/>
<text text-anchor="start" x="356.5" y="-488.4" font-family="Montserrat" font-size="12.00" fill="#333333">Mitigating Automation</text>
<text text-anchor="start" x="392.5" y="-475.4" font-family="Montserrat" font-size="12.00" fill="#333333">Bias in UX</text>
</g>
<!-- SO&#45;&#45;MAB -->
<g id="edge14" class="edge">
<title>SO&#45;&#45;MAB</title>
<path fill="none" stroke="#999999" stroke-width="1.5" d="M431.83,-348.08C429.92,-377.79 426.12,-436.61 424.19,-466.55"/>
</g>
</g>
</svg>
